<svg xmlns="http://www.w3.org/2000/svg" width="40" height="40" viewBox="0 0 40 40">
  <g id="Group_9651" data-name="Group 9651" transform="translate(-4863.5 544)">
    <g id="Group_9650" data-name="Group 9650" transform="translate(46 140)">
      <rect id="Rectangle_2135" data-name="Rectangle 2135" width="40" height="40" transform="translate(4817.5 -684)" fill="#fff"/>
      <g id="noun-color-settings-1387502" transform="translate(4809.385 -689.115)">
        <g id="Layer_3" data-name="Layer 3" transform="translate(15 8.8)">
          <path id="Path_11878" data-name="Path 11878" d="M31.19,12.053a27.882,27.882,0,0,1-2.256-2.235L28.115,8.8,27.3,9.849a27.732,27.732,0,0,1-2.251,2.2C21.3,15.562,15,21.427,15,28.316a13.115,13.115,0,0,0,26.231,0C41.231,21.427,34.935,15.562,31.19,12.053Zm-3.074,27.28A11.017,11.017,0,0,1,17.1,28.316c0-5.981,5.87-11.452,9.375-14.726.63-.588,1.186-1.107,1.642-1.574.456.456,1.013.976,1.642,1.574,3.5,3.274,9.375,8.751,9.375,14.726A11.017,11.017,0,0,1,28.115,39.332Z" transform="translate(-15 -8.8)" fill="#301f6c"/>
          <path id="Path_11879" data-name="Path 11879" d="M26.239,44.37h-.32A11.431,11.431,0,0,0,22,45.466a9.443,9.443,0,0,0,18.823.845,26.4,26.4,0,0,1-4.2.525h-.21a16.671,16.671,0,0,1-5.907-1.4A13.565,13.565,0,0,0,26.239,44.37Z" transform="translate(-18.328 -25.71)" fill="#c90c0f"/>
        </g>
      </g>
    </g>
  </g>
</svg>
