<svg xmlns="http://www.w3.org/2000/svg" width="32" height="32" viewBox="0 0 32 32">
  <g id="Group_9666" data-name="Group 9666" transform="translate(-6038 53)">
    <g id="Group_9665" data-name="Group 9665">
      <rect id="Rectangle_2177" data-name="Rectangle 2177" width="32" height="32" transform="translate(6038 -53)" fill="none"/>
      <g id="noun-drop-1649321" transform="translate(6020.269 -65.753)">
        <g id="Group_9664" data-name="Group 9664" transform="translate(23.2 15)">
          <path id="Path_11884" data-name="Path 11884" d="M43.083,27.181a78.153,78.153,0,0,0-5.3-7.427h0c-.982-1.3-2.083-2.751-3.34-4.44A.92.92,0,0,0,33.731,15a.84.84,0,0,0-.707.354c-1.3,1.69-2.4,3.144-3.34,4.44h0a79.163,79.163,0,0,0-5.3,7.387A8.864,8.864,0,0,0,23.2,31.975a10.531,10.531,0,1,0,21.062,0A8.948,8.948,0,0,0,43.083,27.181Zm-3.144,11a8.8,8.8,0,0,1-15.01-6.208,6.947,6.947,0,0,1,.943-3.929,80.385,80.385,0,0,1,5.187-7.191h0c.786-1.022,1.65-2.2,2.633-3.5.982,1.3,1.886,2.476,2.633,3.5h0a80.385,80.385,0,0,1,5.187,7.191,6.644,6.644,0,0,1,.943,3.929A8.631,8.631,0,0,1,39.939,38.184Z" transform="translate(-23.2 -15)" fill="#301f6c"/>
          <path id="Path_11885" data-name="Path 11885" d="M54.794,56a.872.872,0,0,0-.864.864A5.358,5.358,0,0,1,52.4,60.6a5.288,5.288,0,0,1-3.733,1.532.864.864,0,1,0,0,1.729A7.027,7.027,0,0,0,55.7,56.825.875.875,0,0,0,54.794,56Z" transform="translate(-38.134 -39.889)" fill="#c90c0f"/>
        </g>
      </g>
    </g>
  </g>
</svg>
