<svg xmlns="http://www.w3.org/2000/svg" width="40" height="40" viewBox="0 0 40 40">
  <g id="Group_9595" data-name="Group 9595" transform="translate(-3279 564)">
    <rect id="Rectangle_2087" data-name="Rectangle 2087" width="40" height="40" transform="translate(3279 -564)" fill="#fff"/>
    <g id="noun-leading-215528" transform="translate(3275.671 -577.169)">
      <path id="Path_1370" data-name="Path 1370" d="M58.369,60H36.016a1.016,1.016,0,0,0,0,2.032H58.369a1.016,1.016,0,0,0,0-2.032Z" transform="translate(-17.778 -23.773)" fill="#c90c0f"/>
      <path id="Path_1371" data-name="Path 1371" d="M58.369,80H36.016a1.016,1.016,0,0,0,0,2.032H58.369a1.016,1.016,0,0,0,0-2.032Z" transform="translate(-17.778 -35.645)" fill="#c90c0f"/>
      <path id="Path_1372" data-name="Path 1372" d="M58.369,40H36.016a1.016,1.016,0,0,0,0,2.032H58.369a1.016,1.016,0,0,0,0-2.032Z" transform="translate(-17.778 -11.901)" fill="#c90c0f"/>
      <path id="Path_1373" data-name="Path 1373" d="M36.016,22.032H58.369a1.016,1.016,0,0,0,0-2.032H36.016a1.016,1.016,0,0,0,0,2.032Z" transform="translate(-17.778 -0.03)" fill="#c90c0f"/>
      <path id="Path_1374" data-name="Path 1374" d="M6.777,40.576A1.006,1.006,0,0,0,5.355,42l4.064,4.064a1.083,1.083,0,0,0,1.463,0L14.946,42a1.006,1.006,0,0,0-1.422-1.422l-2.4,2.357V23.425l2.317,2.317a1.02,1.02,0,1,0,1.463-1.422l-4.064-4.064a.982.982,0,0,0-1.422,0L5.355,24.319a1.006,1.006,0,1,0,1.422,1.422l2.317-2.317V42.892Z" fill="#301f6c"/>
    </g>
  </g>
</svg>
