<svg xmlns="http://www.w3.org/2000/svg" width="40" height="40" viewBox="0 0 40 40">
  <g id="Group_9636" data-name="Group 9636" transform="translate(-3608.5 684)">
    <rect id="Rectangle_2088" data-name="Rectangle 2088" width="40" height="40" transform="translate(3608.5 -684)" fill="#fff"/>
    <g id="noun-align-text-1212601" transform="translate(3610.885 -682.026)">
      <g id="Group_9614" data-name="Group 9614" transform="translate(1.229 2.051)">
        <path id="Path_1382" data-name="Path 1382" d="M2.15,85.724H21.076a.921.921,0,0,0,0-1.842H2.15a.921.921,0,0,0,0,1.842Z" transform="translate(-1.229 -53.893)" fill="#c90c0f"/>
        <path id="Path_1383" data-name="Path 1383" d="M2.15,58.451H33.081a.921.921,0,0,0,0-1.842H2.15a.921.921,0,0,0,0,1.842Z" transform="translate(-1.229 -36.615)" fill="#301f6c"/>
        <path id="Path_1384" data-name="Path 1384" d="M2.15,31.176H33.081a.92.92,0,1,0,0-1.841H2.15a.92.92,0,1,0,0,1.841Z" transform="translate(-1.229 -19.336)" fill="#301f6c"/>
        <path id="Path_1385" data-name="Path 1385" d="M2.15,3.893H33.081a.921.921,0,0,0,0-1.842H2.15a.921.921,0,0,0,0,1.842Z" transform="translate(-1.229 -2.051)" fill="#301f6c"/>
      </g>
    </g>
  </g>
</svg>
