<svg xmlns="http://www.w3.org/2000/svg" width="32" height="32" viewBox="0 0 32 32">
  <g id="Group_9674" data-name="Group 9674" transform="translate(-16 -12)">
    <g id="Group_9660" data-name="Group 9660" transform="translate(-5863 65)">
      <rect id="Rectangle_2174" data-name="Rectangle 2174" width="32" height="32" transform="translate(5879 -53)" fill="none"/>
      <g id="noun-wheelchair-250666" transform="translate(5867.765 -56.166)">
        <path id="Path_11880" data-name="Path 11880" d="M52.76,39.883l-1.346-7.634a1.6,1.6,0,0,0-1.163-1.3c-.027-.008-.052-.019-.08-.025-.051-.011-.1-.014-.156-.02a1.555,1.555,0,0,0-.172-.017l-.017,0H43.908l-.429-2.434h4.6a.99.99,0,1,0,0-1.981H43.13l-.25-1.419a2.055,2.055,0,1,0-4.048.714l1.173,6.65a2.054,2.054,0,0,0,2,1.7c.013,0,.026,0,.039,0h6.418l1.116,6.326a1.614,1.614,0,1,0,3.178-.561Z" transform="translate(-15.091 -12.578)" fill="#2f1f6c"/>
        <circle id="Ellipse_49" data-name="Ellipse 49" cx="2.641" cy="2.641" r="2.641" transform="translate(23.282 5)" fill="#2f1f6c"/>
        <path id="Path_11881" data-name="Path 11881" d="M33.066,51.158a.766.766,0,0,0-.566.252l0,0-.147.161s-.163.179-.248.267a8.031,8.031,0,0,1-13.786-5.6,8.083,8.083,0,0,1,3.928-6.9l.13-.076,0-.007a.768.768,0,1,0-.813-1.3c-.07.04-.156.091-.212.125a9.572,9.572,0,1,0,11.877,14.82c.093-.1.274-.295.274-.295l.112-.123,0-.005.033-.036,0,0a.767.767,0,0,0-.579-1.273Z" transform="translate(0 -22.475)" fill="#c90d0f"/>
        <path id="Path_11882" data-name="Path 11882" d="M27.02,68.408l-.005,0a.6.6,0,0,0-1.163.233.592.592,0,0,0,.026.165h0c.007.022.016.043.024.066l0,.005a7.559,7.559,0,0,0,6.521,5.164v0c.012,0,.022,0,.034,0a.6.6,0,0,0,.041-1.2v-.005A6.345,6.345,0,0,1,27.02,68.408Z" transform="translate(-6.219 -43.194)" fill="#c90d0f"/>
      </g>
    </g>
  </g>
</svg>
