<svg xmlns="http://www.w3.org/2000/svg" width="40" height="40" viewBox="0 0 40 40">
  <g id="Screen_reader_default" data-name="Screen reader_default" transform="translate(-5793 335)">
    <rect id="Rectangle_2128" data-name="Rectangle 2128" width="40" height="40" transform="translate(5793 -335)" fill="none"/>
    <g id="Group_9679" data-name="Group 9679" transform="translate(0 68.177)">
      <path id="download_1_" data-name="download (1)" d="M1,14.336H6.629a1.391,1.391,0,0,0,1.391-1.391V7.523c0-1.17,4.238-1.17,4.238,0V19.31c0,1.152,4.238,1.152,4.238,0V3.086c0-1.152,4.238-1.152,4.238,0V19.31c0,1.152,4.3,1.152,4.3,0V7.222c0-1.152,4.172-1.152,4.172,0v5.723A1.391,1.391,0,0,0,30.6,14.336H36.23" transform="translate(5794.385 -394.375)" fill="none" stroke="#c90d0f" stroke-linecap="square" stroke-width="1.5"/>
      <path id="download_1_2" data-name="download (1)" d="M1,14.336H6.629a1.391,1.391,0,0,0,1.391-1.391V7.523c0-1.17,4.238-1.17,4.238,0V19.31c0,1.152,4.238,1.152,4.238,0V3.086c0-1.152,4.238-1.152,4.238,0" transform="translate(5794.385 -394.375)" fill="none" stroke="#2f206c" stroke-linecap="square" stroke-width="1.5"/>
    </g>
  </g>
</svg>
