<svg xmlns="http://www.w3.org/2000/svg" width="40" height="40" viewBox="0 0 40 40">
  <g id="Group_9630" data-name="Group 9630" transform="translate(-3888 120)">
    <rect id="Rectangle_2128" data-name="Rectangle 2128" width="40" height="40" transform="translate(3888 -120)" fill="#fff"/>
    <g id="Group_9610" data-name="Group 9610" transform="translate(-4.395 -4.395)">
      <g id="noun-brightness-6058850" transform="translate(3895 -113)">
        <path id="Path_1380" data-name="Path 1380" d="M20.71,6.052V3.315a.815.815,0,1,0-1.63,0V6.052a.815.815,0,0,0,1.63,0ZM19.08,33.738v2.736a.815.815,0,1,0,1.63,0V33.738a.815.815,0,1,0-1.63,0Zm-9.55-4.63a.815.815,0,0,1,1.153,1.153L8.75,32.193A.815.815,0,1,1,7.6,31.04ZM6.051,19.079H3.316a.815.815,0,1,0,0,1.63H6.052a.815.815,0,1,0,0-1.63Zm4.632-9.55A.815.815,0,0,1,9.53,10.682L7.6,8.75A.815.815,0,1,1,8.75,7.6ZM30.26,10.682a.815.815,0,1,1-1.153-1.153L31.042,7.6A.815.815,0,0,1,32.2,8.75l-1.933,1.933ZM33.739,20.71h2.736a.815.815,0,1,0,0-1.63H33.739a.815.815,0,0,0,0,1.63ZM32.2,32.194a.816.816,0,0,1-1.153,0l-1.935-1.933a.815.815,0,0,1,1.153-1.153l1.933,1.933a.815.815,0,0,1,0,1.153Z" transform="translate(-2.501 -2.5)" fill="#c90c0f" fill-rule="evenodd"/>
      </g>
      <g id="noun-brightness-6058851" transform="translate(3901.247 -106.738)">
        <path id="Path_1381" data-name="Path 1381" d="M10.448,26.184a11.06,11.06,0,1,0-3.291-7.872A11.133,11.133,0,0,0,10.448,26.184ZM17.5,8.851V27.779a9.5,9.5,0,0,1,0-18.928Z" transform="translate(-7.158 -7.18)" fill="#301f6c" fill-rule="evenodd"/>
      </g>
    </g>
  </g>
</svg>
