<svg xmlns="http://www.w3.org/2000/svg" width="32" height="32" viewBox="0 0 32 32">
  <g id="Group_9675" data-name="Group 9675" transform="translate(-16 -12)">
    <g id="Group_9663" data-name="Group 9663" transform="translate(-5969 65)">
      <rect id="Rectangle_2176" data-name="Rectangle 2176" width="32" height="32" transform="translate(5985 -53)" fill="none"/>
      <g id="noun-eye-85322" transform="translate(5981.668 -70.917)">
        <g id="Group_9662" data-name="Group 9662" transform="translate(5.1 25.8)">
          <circle id="Ellipse_50" data-name="Ellipse 50" cx="2.599" cy="2.599" r="2.599" transform="translate(11.632 5.071)" fill="#c90c0f"/>
          <path id="Path_11883" data-name="Path 11883" d="M33.373,32.868a18.19,18.19,0,0,0-6.054-5.135,16.721,16.721,0,0,0-3.8-1.426,18.431,18.431,0,0,0-4.184-.507,16.8,16.8,0,0,0-4.184.507,16.18,16.18,0,0,0-3.8,1.426A17.2,17.2,0,0,0,5.29,32.868a1,1,0,0,0,0,1.173,18.19,18.19,0,0,0,6.054,5.135,16.721,16.721,0,0,0,3.8,1.426,18.431,18.431,0,0,0,4.184.507,16.8,16.8,0,0,0,4.184-.507,16.18,16.18,0,0,0,3.8-1.426,17.2,17.2,0,0,0,6.054-5.135A1,1,0,0,0,33.373,32.868ZM19.332,39.081a5.61,5.61,0,1,1,5.61-5.61A5.621,5.621,0,0,1,19.332,39.081ZM7.35,33.47a16.03,16.03,0,0,1,4.913-3.962c.285-.158.6-.285.887-.412a7.557,7.557,0,0,0,0,8.748c-.285-.127-.6-.285-.887-.412A15.317,15.317,0,0,1,7.35,33.47ZM26.4,37.432c-.285.158-.6.285-.887.412a7.557,7.557,0,0,0,0-8.748c.285.127.6.285.887.412a15.58,15.58,0,0,1,4.913,3.962A15.317,15.317,0,0,1,26.4,37.432Z" transform="translate(-5.1 -25.8)" fill="#301f6c"/>
        </g>
      </g>
    </g>
  </g>
</svg>
